<svg width="109" height="20" viewBox="0 0 109 20" fill="none" xmlns="http://www.w3.org/2000/svg">
<rect width="18.3333" height="20" rx="0.833333" fill="#455976"/>
<path d="M4.16675 4.31661H14.1667V6.81661H4.16675V4.31661Z" fill="white"/>
<path d="M4.16675 13.4834H14.1667V15.9834H4.16675V13.4834Z" fill="white"/>
<path d="M4.16675 8.83337H14.1667V11.1667H4.16675V8.83337Z" fill="white"/>
<path d="M40.9069 13.9866V18.8536H38.5735V15.3944L39.3309 16.1587H27.9093L28.6667 15.3944V18.8536H26.3333V13.9866H40.9069ZM27.3976 14.0268C27.7388 13.8123 28.0185 13.4972 28.2368 13.0816C28.4552 12.6659 28.6257 12.143 28.7486 11.5128C28.8714 10.8827 28.9669 10.0983 29.0351 9.15978L29.5059 2H39.1466V14.3084H36.7109V3.3676L37.4887 4.15196H30.8568L31.7574 3.3676L31.3685 9.15978C31.3003 10.1117 31.2184 10.8894 31.1229 11.4927C31.041 12.0827 30.9182 12.5788 30.7545 12.981C30.5907 13.3832 30.3724 13.7318 30.0995 14.0268H27.3976Z" fill="#455976"/>
<path d="M47.4165 5.66034C48.4262 5.66034 49.32 5.88827 50.0978 6.34413C50.8757 6.8 51.4761 7.43687 51.8991 8.25475C52.3358 9.05922 52.5541 9.98436 52.5541 11.0302C52.5541 12.076 52.3358 13.0078 51.8991 13.8257C51.4761 14.6302 50.8757 15.2603 50.0978 15.7162C49.32 16.1721 48.4262 16.4 47.4165 16.4C46.4067 16.4 45.5129 16.1721 44.7351 15.7162C43.9572 15.2603 43.35 14.6302 42.9133 13.8257C42.4903 13.0078 42.2788 12.076 42.2788 11.0302C42.2788 9.98436 42.4903 9.05922 42.9133 8.25475C43.35 7.43687 43.9572 6.8 44.7351 6.34413C45.5129 5.88827 46.4067 5.66034 47.4165 5.66034ZM47.4165 14.3687C47.9759 14.3687 48.4672 14.2279 48.8902 13.9464C49.3132 13.6648 49.6339 13.276 49.8522 12.7799C50.0706 12.2704 50.1797 11.6872 50.1797 11.0302C50.1797 10.3732 50.0706 9.79665 49.8522 9.30056C49.6339 8.79106 49.3132 8.39553 48.8902 8.11397C48.4672 7.8324 47.9759 7.69162 47.4165 7.69162C46.857 7.69162 46.3657 7.8324 45.9427 8.11397C45.5197 8.39553 45.199 8.79106 44.9807 9.30056C44.7623 9.79665 44.6532 10.3732 44.6532 11.0302C44.6532 11.6872 44.7623 12.2704 44.9807 12.7799C45.199 13.276 45.5197 13.6648 45.9427 13.9464C46.3657 14.2279 46.857 14.3687 47.4165 14.3687Z" fill="#455976"/>
<path d="M56.3619 7.91285L57.1192 7.1486V16.1587H54.7858V5.90168H61.9498V7.91285H56.3619Z" fill="#455976"/>
<path d="M68.145 5.66034C69.1547 5.66034 70.0485 5.88827 70.8264 6.34413C71.6042 6.8 72.2046 7.43687 72.6276 8.25475C73.0643 9.05922 73.2826 9.98436 73.2826 11.0302C73.2826 12.076 73.0643 13.0078 72.6276 13.8257C72.2046 14.6302 71.6042 15.2603 70.8264 15.7162C70.0485 16.1721 69.1547 16.4 68.145 16.4C67.1352 16.4 66.2414 16.1721 65.4636 15.7162C64.6858 15.2603 64.0785 14.6302 63.6419 13.8257C63.2188 13.0078 63.0073 12.076 63.0073 11.0302C63.0073 9.98436 63.2188 9.05922 63.6419 8.25475C64.0785 7.43687 64.6858 6.8 65.4636 6.34413C66.2414 5.88827 67.1352 5.66034 68.145 5.66034ZM68.145 14.3687C68.7044 14.3687 69.1957 14.2279 69.6187 13.9464C70.0417 13.6648 70.3624 13.276 70.5807 12.7799C70.7991 12.2704 70.9082 11.6872 70.9082 11.0302C70.9082 10.3732 70.7991 9.79665 70.5807 9.30056C70.3624 8.79106 70.0417 8.39553 69.6187 8.11397C69.1957 7.8324 68.7044 7.69162 68.145 7.69162C67.5855 7.69162 67.0942 7.8324 66.6712 8.11397C66.2482 8.39553 65.9275 8.79106 65.7092 9.30056C65.4909 9.79665 65.3817 10.3732 65.3817 11.0302C65.3817 11.6872 65.4909 12.2704 65.7092 12.7799C65.9275 13.276 66.2482 13.6648 66.6712 13.9464C67.0942 14.2279 67.5855 14.3687 68.145 14.3687Z" fill="#455976"/>
<path d="M75.5143 16.1587V5.90168H80.2016C81.3206 5.90168 82.1735 6.14972 82.7602 6.64581C83.347 7.12849 83.6404 7.76536 83.6404 8.55642C83.6404 9.10614 83.5039 9.57542 83.231 9.96425C82.9581 10.3397 82.6101 10.6011 82.1871 10.7486C82.7193 10.8961 83.1628 11.1844 83.5176 11.6134C83.886 12.0425 84.0702 12.5855 84.0702 13.2425C84.0702 14.1006 83.7495 14.8045 83.1082 15.3542C82.4668 15.8905 81.5662 16.1587 80.4063 16.1587H75.5143ZM77.8068 15.1732L77.029 14.3888H80.1198C80.652 14.3888 81.0545 14.2749 81.3274 14.0469C81.6003 13.8056 81.7368 13.4771 81.7368 13.0615C81.7368 12.6458 81.6003 12.3307 81.3274 12.1162C81.0545 11.8883 80.652 11.7743 80.1198 11.7743H77.2746V10.0447H79.9151C80.3654 10.0447 80.7134 9.93743 80.959 9.7229C81.2183 9.50838 81.3479 9.21341 81.3479 8.83799C81.3479 8.46257 81.2251 8.1743 80.9795 7.97318C80.7338 7.77207 80.379 7.67151 79.9151 7.67151H77.029L77.8068 6.88715V15.1732Z" fill="#455976"/>
<path d="M90.8524 5.66034C91.8622 5.66034 92.756 5.88827 93.5338 6.34413C94.3116 6.8 94.912 7.43687 95.335 8.25475C95.7717 9.05922 95.99 9.98436 95.99 11.0302C95.99 12.076 95.7717 13.0078 95.335 13.8257C94.912 14.6302 94.3116 15.2603 93.5338 15.7162C92.756 16.1721 91.8622 16.4 90.8524 16.4C89.8426 16.4 88.9488 16.1721 88.171 15.7162C87.3932 15.2603 86.7859 14.6302 86.3493 13.8257C85.9263 13.0078 85.7147 12.076 85.7147 11.0302C85.7147 9.98436 85.9263 9.05922 86.3493 8.25475C86.7859 7.43687 87.3932 6.8 88.171 6.34413C88.9488 5.88827 89.8426 5.66034 90.8524 5.66034ZM90.8524 14.3687C91.4119 14.3687 91.9031 14.2279 92.3261 13.9464C92.7491 13.6648 93.0698 13.276 93.2882 12.7799C93.5065 12.2704 93.6157 11.6872 93.6157 11.0302C93.6157 10.3732 93.5065 9.79665 93.2882 9.30056C93.0698 8.79106 92.7491 8.39553 92.3261 8.11397C91.9031 7.8324 91.4119 7.69162 90.8524 7.69162C90.2929 7.69162 89.8017 7.8324 89.3786 8.11397C88.9556 8.39553 88.6349 8.79106 88.4166 9.30056C88.1983 9.79665 88.0891 10.3732 88.0891 11.0302C88.0891 11.6872 88.1983 12.2704 88.4166 12.7799C88.6349 13.276 88.9556 13.6648 89.3786 13.9464C89.8017 14.2279 90.2929 14.3687 90.8524 14.3687Z" fill="#455976"/>
<path d="M103.707 5.66034C104.54 5.66034 105.304 5.86816 106 6.2838C106.709 6.69944 107.276 7.3095 107.699 8.11397C108.122 8.91844 108.333 9.8905 108.333 11.0302C108.333 12.1564 108.115 13.1285 107.678 13.9464C107.255 14.7508 106.689 15.3609 105.979 15.7765C105.27 16.1922 104.492 16.4 103.646 16.4C102.991 16.4 102.411 16.2927 101.906 16.0782C101.401 15.8503 101.005 15.562 100.719 15.2134C100.432 14.8648 100.269 14.5162 100.228 14.1676L100.555 14.2279V20H98.2217V5.90168H100.473V8.31508L100.125 8.09385C100.207 7.70503 100.391 7.32961 100.678 6.9676C100.965 6.59218 101.367 6.2838 101.886 6.04246C102.404 5.78771 103.011 5.66034 103.707 5.66034ZM103.257 14.3687C103.789 14.3687 104.26 14.2279 104.669 13.9464C105.092 13.6648 105.413 13.276 105.631 12.7799C105.863 12.2704 105.979 11.6872 105.979 11.0302C105.979 10.3732 105.863 9.79665 105.631 9.30056C105.413 8.79106 105.092 8.39553 104.669 8.11397C104.26 7.8324 103.789 7.69162 103.257 7.69162C102.711 7.69162 102.227 7.8257 101.804 8.09385C101.394 8.36201 101.074 8.75084 100.842 9.26033C100.61 9.75642 100.494 10.333 100.494 10.9899V11.0704C100.494 11.7274 100.61 12.3106 100.842 12.8201C101.074 13.3162 101.394 13.6983 101.804 13.9665C102.227 14.2346 102.711 14.3687 103.257 14.3687Z" fill="#455976"/>
</svg>
